# xmcd
#
# Track frame offsets:
#	150
#	20559
#	42069
#	59749
#	77159
#	93164
#	113903
#	131254
#	153194
#	173308
#	195561
#	215649
#	238449
#	256762
#	277226
#	301777
#
# Disc length: 4274 seconds
#
# Revision: 1
# Processed by: cddbd v1.5.1PL2 Copyright (c) Steve Scherf et al.
# Submitted via: audiograbber 1.80
#
DISCID=d410b010
DTITLE=Laith Al Deen - Melomanie
DYEAR=1900
DGENRE=
TTITLE0=Dein Lied (Album Mix)
TTITLE1=Jedes mal
TTITLE2=Jetzt, hier, immer
TTITLE3=Das Beste
TTITLE4=Traurig
TTITLE5=Geh
TTITLE6=Es tut mir leid
TTITLE7=Ich mag, wie Du mich liebst
TTITLE8=Hör gar nicht hin
TTITLE9=Irgendwann
TTITLE10=Ganz oder gar nicht
TTITLE11=Augen
TTITLE12=Du und ich
TTITLE13=Keine Macht dieser Welt
TTITLE14=Keine Antwort
TTITLE15=Outro
EXTD=
EXTT0=
EXTT1=
EXTT2=
EXTT3=
EXTT4=
EXTT5=
EXTT6=
EXTT7=
EXTT8=
EXTT9=
EXTT10=
EXTT11=
EXTT12=
EXTT13=
EXTT14=
EXTT15=
PLAYORDER=
